REM COMMENT "Generated by IcecastMetadataRecorder https://github.com/eshaz/icecast-metadata-js"
REM BR "16"
REM METAINT "64"
REM DATE "2020-07-29T21:16:11.222Z"
TITLE "isics-all"
FILE "isics-all.mp3" WAVE
  TRACK 1 AUDIO
    TITLE "2020-07-29T21:34:49.142Z TO:48696 Polk County - UnityPoint Health Security FROM:UNKNOWN"
    INDEX 01 18:37:69
  TRACK 2 AUDIO
    TITLE "2020-07-29T21:34:51.222Z TO:18501 Boone County Law 1 FROM:899995"
    INDEX 01 18:40:00
  TRACK 3 AUDIO
    TITLE "2020-07-29T21:35:03.830Z TO:1101 Polk County - Westcom Law Enforcement 1 FROM:1441"
    INDEX 01 18:52:46
  TRACK 4 AUDIO
    TITLE "2020-07-29T21:35:05.942Z TO:1101 Polk County - Westcom Law Enforcement 1 FROM:1004"
    INDEX 01 18:54:54
  TRACK 5 AUDIO
    TITLE "2020-07-29T21:35:06.646Z TO:18501 Boone County Law 1 FROM:800408"
    INDEX 01 18:55:32
  TRACK 6 AUDIO
    TITLE "2020-07-29T21:35:09.430Z TO:18501 Boone County Law 1 FROM:800436"
    INDEX 01 18:58:16
  TRACK 7 AUDIO
    TITLE "2020-07-29T21:35:12.246Z TO:18501 Boone County Law 1 FROM:UNKNOWN"
    INDEX 01 19:01:02
  TRACK 8 AUDIO
    TITLE "2020-07-29T21:35:13.622Z TO:1102 Polk County - Westcom Law Enforcement 2 FROM:1441"
    INDEX 01 19:02:30
  TRACK 9 AUDIO
    TITLE "2020-07-29T21:35:16.438Z TO:1102 Polk County - Westcom Law Enforcement 2 FROM:1006"
    INDEX 01 19:05:16
  TRACK 10 AUDIO
    TITLE "END"
    INDEX 01 19:06:47